# xmcd
#
# Track frame offsets:
#	150
#	19156
#	40830
#	54623
#	66788
#	80674
#	96389
#	113786
#	127438
#	144337
#	158031
#	170858
#	184634
#	201659
#	218887
#	240315
#	254087
#	265945
#	282561
#	293851
#
# Disc length: 4160 seconds
#
# Revision: 1
# Processed by: cddbd v1.5.2PL0 Copyright (c) Steve Scherf et al.
# Submitted via: audiograbber 1.80
#
DISCID=43103e14
DTITLE=CD 3 - Just Country - 80 Classic Country Songs
DYEAR=1900
DGENRE=
TTITLE0=Gillian Welch - Look At Miss Ohio
TTITLE1=Emmylou Harris - Pancho and Lefty
TTITLE2=Glen Campell - Tennessee
TTITLE3=Seasick Steve - Walkin Man
TTITLE4=Tom Paxton - The Last Thing On My Mind
TTITLE5=Blake Shelton - Honey Bee
TTITLE6=Frankie Ballard - Helluva Life
TTITLE7=Tracy Lawrence - Time Marches On
TTITLE8=Tony Joe White - Polk Salad Annie
TTITLE9=Micheal Peterson - Drink, Swear, Steal and Lie
TTITLE10=Eddie Rabbitt - Every Which Wav But Loose
TTITLE11=Highway 101 - Whiskey, If You Were A Woman
TTITLE12=Claudia Church - What's The Matter With You Baby
TTITLE13=The Souther - Hillman-Furay Band
TTITLE14=Blackfoot - Drivin' Fool
TTITLE15=Dwight Yoakam - Guitars, Cadillacs
TTITLE16=The McCarters - Timeless And True Love
TTITLE17=Jana Kramer - Why You Wanna
TTITLE18=John Michael Montgomery - Sold (The Grundy Country Auction Incident)
TTITLE19=Willie Nelson - Whiskey River
EXTD=
EXTT0=
EXTT1=
EXTT2=
EXTT3=
EXTT4=
EXTT5=
EXTT6=
EXTT7=
EXTT8=
EXTT9=
EXTT10=
EXTT11=
EXTT12=
EXTT13=
EXTT14=
EXTT15=
EXTT16=
EXTT17=
EXTT18=
EXTT19=
PLAYORDER=
